<?xml version="1.0" encoding="UTF-8" standalone="no"?>
<!-- Created with Inkscape (http://www.inkscape.org/) -->

<svg
   width="210mm"
   height="297mm"
   viewBox="0 0 210 297"
   version="1.1"
   id="svg26"
   inkscape:version="1.1.2 (b8e25be8, 2022-02-05)"
   sodipodi:docname="harry.svg"
   xmlns:inkscape="http://www.inkscape.org/namespaces/inkscape"
   xmlns:sodipodi="http://sodipodi.sourceforge.net/DTD/sodipodi-0.dtd"
   xmlns="http://www.w3.org/2000/svg"
   xmlns:svg="http://www.w3.org/2000/svg">
  <sodipodi:namedview
     id="namedview28"
     pagecolor="#ffffff"
     bordercolor="#666666"
     borderopacity="1.0"
     inkscape:pageshadow="2"
     inkscape:pageopacity="0.0"
     inkscape:pagecheckerboard="0"
     inkscape:document-units="mm"
     showgrid="false"
     inkscape:zoom="1.183384"
     inkscape:cx="403.50384"
     inkscape:cy="534.06163"
     inkscape:window-width="1440"
     inkscape:window-height="900"
     inkscape:window-x="0"
     inkscape:window-y="0"
     inkscape:window-maximized="0"
     inkscape:current-layer="layer1">
    <inkscape:grid
       type="xygrid"
       id="grid30" />
  </sodipodi:namedview>
  <defs
     id="defs23" />
  <g
     inkscape:label="Vrstva 1"
     inkscape:groupmode="layer"
     id="layer1">
    <path
       style="fill:#322d16;stroke:#000000;stroke-width:0.665;stroke-linecap:butt;stroke-linejoin:miter;stroke-opacity:1;stroke-miterlimit:4;stroke-dasharray:none;fill-opacity:1"
       d="M 124.35417,76.729167 C 71.532224,71.674435 73.97228,120.19387 79.374996,116.41667 l 5.291667,-2.64584 c -6.931218,12.72263 -0.709304,18.20677 5.291666,23.8125 L 92.604163,127 c 0.140089,-13.03546 -0.268527,-17.00583 0,-21.16667 -0.147168,13.73325 -0.02726,21.26161 2.645833,21.16667 l 13.229174,-26.45833 c 14.63108,2.46554 15.08451,15.17189 21.16666,23.8125 5.76948,-0.77303 6.7822,-7.95942 5.29167,-18.52084 4.8889,6.45604 3.23935,14.34949 18.52083,18.52084 l 2.64583,-10.58334 c 2.72698,4.57522 7.37093,10.97131 13.22917,18.52083 5.54624,-3.57783 5.31964,-10.67918 5.29167,-21.16666 -0.76841,9.66525 2.88853,17.92224 -2.64584,29.10416 4.8892,-0.93439 8.18104,0.4324 7.9375,-13.22916 1.205,4.68333 4.62481,2.16758 7.9375,0 0.69853,-43.338112 -38.31699,-67.683101 -63.49999,-50.270833 z"
       id="path77"
       sodipodi:nodetypes="cccccccccccccccccc" />
    <path
       style="fill:none;stroke:#000000;stroke-width:0.665;stroke-linecap:butt;stroke-linejoin:miter;stroke-opacity:1;stroke-miterlimit:4;stroke-dasharray:none"
       d="m 91.54583,134.9375 h 7.937503"
       id="path1919" />
    <path
       style="fill:none;stroke:#000000;stroke-width:0.665;stroke-linecap:butt;stroke-linejoin:miter;stroke-opacity:1;stroke-miterlimit:4;stroke-dasharray:none"
       d="m 123.29583,134.9375 h 15.87499"
       id="path1954" />
    <path
       style="fill:none;stroke:#000000;stroke-width:0.665;stroke-linecap:butt;stroke-linejoin:miter;stroke-opacity:1;stroke-miterlimit:4;stroke-dasharray:none"
       d="m 164.04167,134.9375 h 7.9375"
       id="path1989" />
    <path
       style="fill:none;stroke:#000000;stroke-width:0.264583px;stroke-linecap:butt;stroke-linejoin:miter;stroke-opacity:1"
       d="m 171.97916,134.9375 h 1.85209"
       id="path6359" />
    <path
       style="fill:none;stroke:#000000;stroke-width:3.70963;stroke-linecap:butt;stroke-linejoin:miter;stroke-miterlimit:4;stroke-dasharray:none;stroke-opacity:1"
       d="m 138.1125,134.9375 h 2.38125"
       id="path6474" />
    <path
       style="fill:none;stroke:#000000;stroke-width:0.665;stroke-linecap:butt;stroke-linejoin:miter;stroke-opacity:1;stroke-miterlimit:4;stroke-dasharray:none"
       d="m 116.41665,108.47916 1.32292,2.64584 h -3.96874 l 2.64582,3.96875"
       id="path7536" />
    <path
       style="fill:none;stroke:#000000;stroke-width:0.665;stroke-linecap:butt;stroke-linejoin:miter;stroke-opacity:1;stroke-miterlimit:4;stroke-dasharray:none"
       d="m 127,153.45833 5.29166,2.64583 5.29167,-2.64583"
       id="path7651" />
    <ellipse
       style="fill:#000000;fill-opacity:1;stroke:#000000;stroke-width:0.342909;stroke-opacity:1"
       id="path7675"
       cx="112.11668"
       cy="135.59862"
       rx="3.5983527"
       ry="3.267792" />
    <path
       style="fill:#000000;stroke:#000000;stroke-width:0.665;stroke-linecap:butt;stroke-linejoin:miter;stroke-opacity:1;stroke-miterlimit:4;stroke-dasharray:none;fill-opacity:1"
       d="M 97.676941,148.16666 H 71.218608 l 10.583333,58.20834 55.562499,-29.10417 5.29167,5.29167 10.58333,-7.9375 -10.58333,-13.22917"
       id="path10470"
       sodipodi:nodetypes="ccccccc" />
    <path
       style="fill:#800000;stroke:#000000;stroke-width:0.665;stroke-linecap:butt;stroke-linejoin:miter;stroke-opacity:1;stroke-miterlimit:4;stroke-dasharray:none"
       d="m 112.44792,190.5 c 2.52863,8.46965 -1.61085,11.20596 -5.29167,14.55208 l -5.29167,-8.99583"
       id="path11705"
       sodipodi:nodetypes="ccc" />
    <path
       style="fill:#000000;stroke:#000000;stroke-width:0.665;stroke-linecap:butt;stroke-linejoin:miter;stroke-opacity:1;stroke-miterlimit:4;stroke-dasharray:none"
       d="m 107.15625,205.05208 c -0.16635,1.00192 0.0944,2.0214 -2.64583,1.32292 l -5.556255,-8.73125"
       id="path11707"
       sodipodi:nodetypes="ccc" />
    <path
       style="fill:#a05a2c;stroke:#000000;stroke-width:0.665;stroke-linecap:butt;stroke-linejoin:miter;stroke-opacity:1;stroke-miterlimit:4;stroke-dasharray:none;fill-opacity:1"
       d="m 155.31042,177.27083 7.40833,-2.64583 2.64583,5.29166 -10.58333,3.96875"
       id="path12187"
       sodipodi:nodetypes="cccc" />
    <path
       style="fill:#784421;stroke:#000000;stroke-width:0.665;stroke-linecap:butt;stroke-linejoin:miter;stroke-opacity:1;stroke-miterlimit:4;stroke-dasharray:none"
       d="m 142.34583,182.29792 -29.63333,9.26041"
       id="path12189"
       sodipodi:nodetypes="cc" />
    <path
       style="fill:#784421;stroke:#000000;stroke-width:0.665;stroke-linecap:butt;stroke-linejoin:miter;stroke-opacity:1;stroke-miterlimit:4;stroke-dasharray:none"
       d="M 147.37292,186.26667 112.97708,196.85"
       id="path12191"
       sodipodi:nodetypes="cc" />
    <path
       style="fill:#502d16;stroke:#000000;stroke-width:0.665;stroke-linecap:butt;stroke-linejoin:miter;stroke-opacity:1;stroke-miterlimit:4;stroke-dasharray:none"
       d="M 100.80625,200.81875 87.3125,203.46458"
       id="path12323"
       sodipodi:nodetypes="cc" />
    <path
       style="fill:none;stroke:#000000;stroke-width:0.665;stroke-linecap:butt;stroke-linejoin:miter;stroke-opacity:1;stroke-miterlimit:4;stroke-dasharray:none"
       d="M 91.545832,134.9375 H 90.487499"
       id="path12663" />
    <path
       style="fill:#784421;stroke:#000000;stroke-width:0.665;stroke-linecap:butt;stroke-linejoin:miter;stroke-opacity:1;stroke-miterlimit:4;stroke-dasharray:none"
       d="m 74.083333,199.76042 c -16.965442,-4.932 -33.267047,-13.31965 -52.3875,3.175 L 34.925,205.58125 c -8.225609,1.12002 -13.876892,2.1468 -18.520833,7.9375 6.36247,3.67385 9.777199,2.88461 15.874999,2.64583 -2.797243,1.45793 -5.947591,2.20231 -7.9375,5.29167 26.359038,5.03949 47.414956,-7.15394 51.064584,-16.40417"
       id="path14721"
       sodipodi:nodetypes="ccccccc" />
    <path
       style="fill:#a05a2c;fill-opacity:1;stroke:#000000;stroke-width:0.837872;stroke-miterlimit:4;stroke-dasharray:none;stroke-opacity:1"
       d="m 340.89239,765.10241 c 0.36627,-0.35461 32.09838,-16.85499 32.20637,-16.74699 0.0683,0.0683 1.45129,2.20685 3.07341,4.75244 2.76447,4.33827 2.90481,4.64324 2.23923,4.86605 -0.92857,0.31085 -36.48939,7.26298 -37.15087,7.26298 -0.27887,0 -0.44453,-0.0605 -0.36814,-0.13448 z"
       id="path17157"
       transform="scale(0.26458333)" />
    <path
       style="fill:#c87137;fill-opacity:1;stroke:#000000;stroke-width:0.837872;stroke-miterlimit:4;stroke-dasharray:none;stroke-opacity:1"
       d="m 429.20605,737.38352 c 0,-2.90165 -0.22982,-5.76102 -0.67,-8.33578 -0.3685,-2.1555 -0.61107,-3.97803 -0.53903,-4.05007 0.072,-0.072 24.78563,-7.84262 54.91911,-17.26797 54.73457,-17.12024 54.78882,-17.13635 55.48547,-16.48189 0.38353,0.36031 0.79737,0.55507 0.91964,0.4328 0.23135,-0.23135 2.29876,1.46435 7.39559,6.06592 1.65016,1.4898 3.8628,3.40352 4.91699,4.25271 l 1.91671,1.54397 -2.75012,0.84134 c -1.51257,0.46273 -29.49007,9.07056 -62.17224,19.1285 l -59.42212,18.28716 z"
       id="path17196"
       transform="scale(0.26458333)" />
    <path
       style="fill:#e9c6af;fill-opacity:1;stroke:#000000;stroke-width:0.837872;stroke-miterlimit:4;stroke-dasharray:none;stroke-opacity:1"
       d="m 526.21495,508.88003 c 0,-0.21971 -9.98786,-0.33336 -29.29685,-0.33336 h -29.29686 l -0.23004,-2.58357 c -0.99343,-11.15745 -5.51767,-20.79118 -13.50366,-28.75409 -8.68159,-8.65651 -18.61711,-13.02073 -30.84872,-13.55045 -14.11029,-0.61108 -27.43313,5.05887 -36.78551,15.65524 -6.45349,7.31188 -10.62365,17.09409 -11.28954,26.48261 l -0.19507,2.75026 h -15.11854 c -10.03466,0 -15.11854,-0.11412 -15.11854,-0.33936 0,-0.18664 1.57514,-6.63454 3.50032,-14.32866 3.39215,-13.55701 3.50071,-14.10538 3.51298,-17.74564 l 0.0127,-3.75633 0.999,2.54979 c 1.08593,2.77164 3.05081,5.31155 4.54807,5.87909 0.51051,0.19351 1.57235,0.42548 2.35965,0.51548 l 1.43145,0.16364 24.96816,-49.93544 24.96816,-49.93543 1.45576,0.27197 c 5.96113,1.11366 13.44388,3.57455 18.75171,6.16697 6.95142,3.39518 12.44798,7.42687 18.03845,13.23109 7.92114,8.22402 13.5112,17.40698 22.47658,36.92304 7.63788,16.6263 11.24604,23.60313 15.55093,30.06957 l 2.18506,3.28221 1.21061,-0.20728 c 12.31779,-2.1091 19.31464,-10.5445 22.037,-26.56785 1.54602,-9.09955 1.4677,-25.9968 -0.17418,-37.5795 -0.15759,-1.11167 -0.14063,-1.13529 0.35918,-0.50004 0.79176,1.00633 4.78169,8.99191 7.49531,15.00137 4.81043,10.65295 8.14906,16.79377 11.51325,21.17656 6.30389,8.21255 13.29361,13.98397 23.15251,19.11704 4.33963,2.25945 11.44141,5.25563 15.56735,6.56772 2.52077,0.80163 2.86354,1.30977 0.88352,1.30977 -2.02309,0 -7.78107,1.32238 -11.1026,2.54982 -12.02972,4.44548 -21.76353,13.76361 -26.68735,25.5477 -1.32083,3.16113 -2.99649,9.00064 -2.99649,10.44251 0,0.75857 -0.10424,0.79691 -2.16686,0.79691 -1.22234,0 -2.16687,-0.14531 -2.16687,-0.33336 z M 440.66493,434.7887 c 0.5892,-0.44034 0.38629,-0.82382 -3.58486,-6.77505 l -4.20941,-6.30829 7.16852,-0.0898 c 3.94269,-0.0494 7.16852,-0.1635 7.16852,-0.25353 0,-0.09 -1.34978,-2.86009 -2.99951,-6.1557 l -2.99951,-5.99201 -1.16754,0.55676 c -0.64214,0.30621 -1.16753,0.68148 -1.16753,0.83393 0,0.15244 0.82507,1.92233 1.8335,3.93307 1.00842,2.01074 1.8335,3.7334 1.8335,3.82813 0,0.0947 -3.37531,0.17224 -7.50069,0.17224 -4.12538,0 -7.50069,0.0772 -7.50069,0.17149 0,0.0943 2.5539,3.99799 5.67532,8.67483 6.05026,9.06513 5.69717,8.71423 7.45038,7.40397 z"
       id="path17309"
       transform="scale(0.26458333)" />
    <path
       style="fill:#e9c6af;fill-opacity:1;stroke:#000000;stroke-width:0.837872;stroke-miterlimit:4;stroke-dasharray:none;stroke-opacity:1"
       d="m 650.22633,508.88003 c 0,-0.21695 -4.88722,-0.33336 -13.99493,-0.33336 h -13.99494 l -0.20127,-0.91676 c -2.04672,-9.32197 -4.89683,-15.2834 -10.49515,-21.95218 -6.57486,-7.83205 -17.21601,-13.83263 -27.46099,-15.48532 -2.07338,-0.33447 -2.51119,-0.50856 -2.3798,-0.9463 0.0885,-0.29504 1.97429,-7.8121 4.19052,-16.70458 2.21623,-8.89249 4.18198,-16.74494 4.36833,-17.44991 l 0.33883,-1.28176 1.74925,2.7819 c 6.62995,10.54383 17.66154,26.22473 30.33441,43.11893 11.46477,15.2837 16.91151,22.18695 17.31814,21.94921 9.87907,-5.77591 16.21228,-15.90001 19.04978,-30.45245 0.47918,-2.45754 0.95583,-4.54995 1.05923,-4.64979 0.1034,-0.0998 0.11187,5.29397 0.0188,11.98625 -0.19182,13.79628 -0.59053,17.67228 -2.78627,27.08582 l -0.8359,3.58366 h -3.13902 c -1.87043,0 -3.13902,-0.13472 -3.13902,-0.33336 z"
       id="path17385"
       transform="scale(0.26458333)" />
    <path
       style="fill:#e9c6af;fill-opacity:1;stroke:#000000;stroke-width:0;stroke-miterlimit:4;stroke-dasharray:none;stroke-opacity:1"
       d="m 634.62055,528.93417 c -13.179,-0.83907 -13.43534,-0.8688 -13.2537,-1.53739 0.7443,-2.73964 1.26709,-7.31891 1.28619,-11.26609 l 0.0222,-4.58375 h 13.77555 c 12.0227,0 13.77556,-0.0636 13.77556,-0.50004 0,-0.40527 0.53709,-0.50005 2.8336,-0.50005 1.63816,0 2.83359,0.13854 2.83359,0.32838 0,1.78181 -6.97555,19.11074 -7.63238,18.96064 -0.11092,-0.0254 -6.24919,-0.43112 -13.64059,-0.9017 z"
       id="path17424"
       transform="scale(0.26458333)" />
    <path
       style="fill:#e9c6af;fill-opacity:1;stroke:#000000;stroke-width:0;stroke-miterlimit:4;stroke-dasharray:none;stroke-opacity:1"
       d="m 496.2122,520.28808 c -16.04314,-1.01392 -29.20806,-1.87153 -29.25538,-1.90581 -0.0473,-0.0343 0.0928,-1.58625 0.31129,-3.44882 l 0.39733,-3.38651 h 29.27476 c 25.79976,0 29.27475,-0.0594 29.27475,-0.50004 0,-0.38654 0.43513,-0.5 1.91685,-0.49983 l 1.91684,2.2e-4 0.0127,5.83365 0.0126,5.83365 -2.3462,-0.0415 c -1.29041,-0.0228 -15.47241,-0.87108 -31.51555,-1.88499 z"
       id="path17463"
       transform="scale(0.26458333)" />
    <path
       style="fill:#e9c6af;fill-opacity:1;stroke:#000000;stroke-width:0;stroke-miterlimit:4;stroke-dasharray:none;stroke-opacity:1"
       d="m 363.27541,512.0522 c -1.70117,-0.0215 -10.91643,-0.69267 -11.1345,-0.70658 -0.21806,-0.0139 4.81291,-0.031 11.17994,-0.038 l 11.57641,-0.0127 0.0206,0.72701 0.0206,0.72702 -0.46256,-0.008 c -2.89707,0.7212 -6.75043,0.0852 -11.20058,-0.68898 z"
       id="path17578"
       transform="scale(0.26458333)"
       sodipodi:nodetypes="csscccccc" />
    <path
       style="fill:#e9c6af;fill-opacity:1;stroke:#000000;stroke-width:0;stroke-miterlimit:4;stroke-dasharray:none;stroke-opacity:1"
       d=""
       id="path17996"
       transform="scale(0.26458333)" />
    <path
       style="fill:#e9c6af;fill-opacity:1;stroke:#000000;stroke-width:0;stroke-miterlimit:4;stroke-dasharray:none;stroke-opacity:1"
       d="m 635.14001,528.90451 c -9.80074,-0.66254 -13.40873,-0.97891 -13.62448,-1.19465 -0.051,-0.051 0.0472,-0.74244 0.21821,-1.53659 0.5666,-2.63164 0.86109,-5.66785 0.98289,-10.13363 l 0.1204,-4.41457 12.37835,-0.01 c 6.80809,-0.005 12.93114,-0.0711 13.60676,-0.14634 0.76099,-0.0847 1.34953,-0.25792 1.54676,-0.45515 0.26617,-0.26617 0.6945,-0.31835 2.61333,-0.31835 1.26223,0 2.42022,0.0481 2.57331,0.10681 0.24273,0.0931 0.2319,0.27434 -0.0846,1.41662 -0.81785,2.9513 -5.03701,13.52524 -6.53075,16.36718 l -0.56177,1.06879 -1.41464,-0.0235 c -0.77806,-0.0129 -6.09874,-0.34011 -11.82373,-0.72712 z"
       id="path18035"
       transform="scale(0.26458333)" />
    <path
       style="fill:#e9c6af;fill-opacity:1;stroke:#000000;stroke-width:0;stroke-miterlimit:4;stroke-dasharray:none;stroke-opacity:1"
       d=""
       id="path18074"
       transform="scale(0.26458333)" />
    <path
       style="fill:#e9c6af;fill-opacity:1;stroke:#000000;stroke-width:0;stroke-miterlimit:4;stroke-dasharray:none;stroke-opacity:1"
       d="m 627.62061,528.59465 c -3.64872,-0.22929 -6.6377,-0.42056 -6.64219,-0.42505 -0.004,-0.004 0.0318,-0.1578 0.0807,-0.34069 0.75354,-2.82093 1.26566,-5.95975 1.44767,-8.8728 0.0506,-0.80911 0.0535,-0.84324 0.0718,-0.84324 0.01,0 0.0178,0.007 0.0177,0.0147 -1.1e-4,0.0507 -0.0621,1.12511 -0.0789,1.36782 -0.20612,2.97613 -0.57664,5.57122 -1.08778,7.61858 -0.12314,0.49323 -0.12376,0.53853 -0.009,0.63536 0.38561,0.32447 2.18699,0.49663 11.00013,1.05129 1.04081,0.0655 1.92107,0.12355 1.95612,0.12899 0.0468,0.007 0.0637,0.0201 0.0637,0.0482 0,0.033 -0.013,0.038 -0.0931,0.036 -0.0512,-0.001 -3.07847,-0.18992 -6.72718,-0.41921 z"
       id="path18113"
       transform="scale(0.26458333)" />
    <path
       style="fill:#e9c6af;fill-opacity:1;stroke:#000000;stroke-width:0;stroke-miterlimit:4;stroke-dasharray:none;stroke-opacity:1"
       d="m 641.42219,529.45617 c -3.82351,-0.24081 -6.95846,-0.43832 -6.96655,-0.43892 -0.008,-5.9e-4 -0.0147,-0.0187 -0.0147,-0.0403 0,-0.0284 0.0131,-0.0392 0.0476,-0.0392 0.18997,0 12.0058,0.77315 13.38426,0.87578 l 0.44005,0.0328 0.0738,-0.0832 c 0.51417,-0.5794 2.10728,-4.09969 4.07869,-9.01267 l 0.40918,-1.01973 4e-5,0.3479 4e-5,0.34789 -0.17457,0.43652 c -1.09818,2.74593 -2.34518,5.54015 -3.69285,8.27476 l -0.37496,0.76085 -0.12909,-0.002 c -0.071,-10e-4 -3.25741,-0.19934 -7.08092,-0.44015 z"
       id="path18152"
       transform="scale(0.26458333)" />
    <path
       style="fill:#e9c6af;fill-opacity:1;stroke:#000000;stroke-width:0;stroke-miterlimit:4;stroke-dasharray:none;stroke-opacity:1"
       d=""
       id="path18191"
       transform="scale(0.26458333)" />
    <path
       style="fill:#e9c6af;fill-opacity:1;stroke:#000000;stroke-width:0;stroke-miterlimit:4;stroke-dasharray:none;stroke-opacity:1"
       d="m 520.85907,521.9151 c -6.30481,-0.39671 -9.16982,-0.58931 -9.17907,-0.61703 -0.009,-0.0272 0.0366,-0.0356 0.14006,-0.0257 0.2101,0.02 6.90912,0.42112 10.94843,0.65562 3.33608,0.19367 4.61544,0.25316 5.90684,0.27466 l 1.40299,0.0234 0.007,-2.28451 c 0.004,-1.25648 0.0117,-2.17191 0.0175,-2.0343 0.0475,1.1285 0.22382,3.13765 0.36311,4.13747 l 0.0635,0.45575 -0.25237,-0.004 c -0.13881,-0.002 -4.37691,-0.26381 -9.41801,-0.58102 z"
       id="path18230"
       transform="scale(0.26458333)" />
    <path
       style="fill:#e9c6af;fill-opacity:1;stroke:#000000;stroke-width:0;stroke-miterlimit:4;stroke-dasharray:none;stroke-opacity:1"
       d="m 530.08476,512.39355 -0.006,-1.86767 h 0.15493 0.15494 l -0.0273,0.20554 c -0.0533,0.40007 -0.17352,1.82324 -0.2107,2.4932 -0.0207,0.37353 -0.0425,0.75958 -0.0483,0.85788 -0.006,0.0983 -0.0135,-0.66173 -0.0171,-1.68895 z"
       id="path18269"
       transform="scale(0.26458333)" />
    <path
       style="fill:#e9c6af;fill-opacity:1;stroke:#000000;stroke-width:0;stroke-miterlimit:4;stroke-dasharray:none;stroke-opacity:1"
       d="m 526.0034,510.84759 v -0.32171 l 0.72384,0.005 c 0.61338,0.004 0.67406,0.009 0.39768,0.0319 -0.56663,0.0466 -0.90705,0.19306 -0.90705,0.39032 0,0.0758 -0.11605,0.21609 -0.17872,0.21609 -0.0212,0 -0.0357,-0.13106 -0.0357,-0.3217 z"
       id="path18308"
       transform="scale(0.26458333)" />
    <path
       style="fill:#e9c6af;fill-opacity:1;stroke:#000000;stroke-width:0;stroke-miterlimit:4;stroke-dasharray:none;stroke-opacity:1"
       d="m 496.65688,511.40689 v -0.13037 l 14.30688,0.005 c 7.86878,0.003 14.16211,0.0178 13.98517,0.0335 -1.48968,0.13207 -5.28836,0.17579 -17.39881,0.20024 l -10.89324,0.022 z"
       id="path18347"
       transform="scale(0.26458333)" />
    <path
       style="fill:#e9c6af;fill-opacity:1;stroke:#000000;stroke-width:0;stroke-miterlimit:4;stroke-dasharray:none;stroke-opacity:1"
       d="m 139.87447,139.06889 c -0.41137,-0.008 -0.76725,-0.0266 -2.5488,-0.13215 -1.5247,-0.0903 -5.1881,-0.31685 -7.30118,-0.45148 l -0.70459,-0.0449 -0.002,-1.08864 -0.002,-1.08865 3.88943,-0.005 c 5.03861,-0.007 5.7571,-0.0187 5.97148,-0.097 0.0326,-0.0119 0.0402,-0.0196 0.0451,-0.0455 0.0187,-0.0996 0.12886,-0.11893 0.67941,-0.11918 l 0.32865,-1.5e-4 v 1.54157 c 0,0.84787 -0.001,1.54087 -0.002,1.54001 -0.001,-7.9e-4 -0.15984,-0.005 -0.3523,-0.009 z"
       id="path18386" />
    <path
       style="fill:#e9c6af;fill-opacity:1;stroke:#000000;stroke-width:0;stroke-miterlimit:4;stroke-dasharray:none;stroke-opacity:1"
       d="m 504.97666,520.93315 -5.56604,-0.34877 v -0.0452 c 0,-0.0322 0.003,-0.0452 0.0103,-0.0452 0.006,0 0.65406,0.0404 1.44088,0.0899 2.05515,0.12909 7.01508,0.43656 8.44922,0.52376 0.67312,0.0409 1.24585,0.0765 1.27274,0.079 l 0.0489,0.005 v 0.0463 0.0463 l -0.045,-9.2e-4 c -0.0247,-5.1e-4 -2.54969,-0.15787 -5.61101,-0.34969 z"
       id="path18462"
       transform="scale(0.26458333)" />
    <path
       style="fill:#e9c6af;fill-opacity:1;stroke:#000000;stroke-width:0;stroke-miterlimit:4;stroke-dasharray:none;stroke-opacity:1"
       d="m 478.88394,519.29907 c -6.74608,-0.4224 -12.26811,-0.76953 -12.27118,-0.77141 -0.003,-0.002 0.005,-0.0568 0.017,-0.12196 0.36197,-1.90171 0.63303,-4.22355 0.72214,-6.18562 0.0126,-0.27707 0.0286,-0.60479 0.0356,-0.72827 l 0.0127,-0.2245 h 12.00065 12.00066 v 0.13141 0.13142 H 479.532 467.66258 l -0.0131,0.0821 c -0.0264,0.16569 -0.45407,3.84929 -0.52708,4.53936 -0.0951,0.89874 -0.15865,1.59701 -0.1778,1.95325 l -0.0149,0.27769 0.0743,0.0127 c 0.1841,0.0315 4.24933,0.30279 12.97507,0.86588 6.05627,0.39082 11.27952,0.72347 11.35989,0.72347 0.0478,0 0.0624,0.0102 0.0624,0.0438 0,0.039 -0.0137,0.0435 -0.12594,0.0412 -0.0693,-10e-4 -5.64546,-0.34819 -12.39154,-0.77059 z"
       id="path18501"
       transform="scale(0.26458333)" />
    <path
       style="fill:#e9c6af;fill-opacity:1;stroke:#000000;stroke-width:0;stroke-miterlimit:4;stroke-dasharray:none;stroke-opacity:1"
       d="m 491.40281,511.40064 v -0.13542 h 2.61822 2.61823 v 0.13542 0.13543 h -2.61823 -2.61822 z"
       id="path18540"
       transform="scale(0.26458333)" />
    <path
       style="fill:#e9c6af;fill-opacity:1;stroke:#000000;stroke-width:0;stroke-miterlimit:4;stroke-dasharray:none;stroke-opacity:1"
       d="m 495.22858,520.31579 c -2.09797,-0.13375 -3.81703,-0.24425 -3.82013,-0.24555 -0.003,-10e-4 -0.006,-0.0176 -0.006,-0.0362 0,-0.0221 0.0221,-0.0339 0.0639,-0.0339 0.0351,0 0.93657,0.0557 2.00317,0.12387 2.23392,0.14268 5.87815,0.37269 5.9049,0.37269 0.01,0 0.0181,0.0152 0.0181,0.0339 0,0.0274 -0.0333,0.0333 -0.17492,0.0311 -0.0962,-10e-4 -1.89145,-0.11216 -3.98941,-0.24592 z"
       id="path18579"
       transform="scale(0.26458333)" />
    <path
       style="fill:none;stroke:#000000;stroke-width:0.265;stroke-linecap:butt;stroke-linejoin:miter;stroke-miterlimit:4;stroke-dasharray:none;stroke-opacity:1"
       d="m 138.90625,135.20208 c -0.001,0 1.05833,0 1.5875,0"
       id="path18764"
       sodipodi:nodetypes="cc" />
    <path
       style="fill:none;stroke:#000000;stroke-width:0.264583px;stroke-linecap:butt;stroke-linejoin:miter;stroke-opacity:1"
       d="m 139.17083,134.67291 h 1.32292"
       id="path18766" />
    <path
       style="fill:#e9c6af;stroke:#000000;stroke-width:0.765;stroke-linecap:butt;stroke-linejoin:miter;stroke-opacity:1;stroke-miterlimit:4;stroke-dasharray:none"
       d="m 87.3125,134.9375 c -1.5875,-1.32292 2.116667,2.11665 0.264583,0.26458 -2.019909,4.81037 0.520142,6.74763 5.291667,7.67293 16.74813,19.0287 53.97652,27.69931 74.08334,5.29165 10.94565,-0.24339 9.58224,-2.91332 10.58333,-5.29166 0.36171,-0.68618 3.33334,-5.27016 -5.55625,-2.64584"
       id="path1189"
       sodipodi:nodetypes="cccccc" />
    <ellipse
       style="fill:#000000;fill-opacity:1;stroke:#000000;stroke-width:0.343246;stroke-opacity:1"
       id="path7675-3"
       cy="136.55281"
       cx="154.33904"
       rx="3.4879973"
       ry="3.3778105" />
    <circle
       style="fill:#e9c6af;fill-opacity:1;fill-rule:evenodd;stroke:#000000;stroke-width:0.665;stroke-opacity:1;stroke-miterlimit:4;stroke-dasharray:none"
       id="path1764-4"
       cx="152.48979"
       cy="136.51546"
       r="11.90625" />
    <circle
       style="fill:#e9c6af;fill-rule:evenodd;stroke-width:0.665;stroke:#120000;stroke-opacity:1;fill-opacity:1;stroke-miterlimit:4;stroke-dasharray:none"
       id="path1764"
       cx="111.42773"
       cy="134.92094"
       r="11.90625" />
    <circle
       style="fill:#000000;fill-opacity:1;stroke:#000000;stroke-width:0.362635;stroke-miterlimit:4;stroke-dasharray:none;stroke-opacity:1"
       id="path19185"
       cx="111.71975"
       cy="135.13203"
       r="4.5258322" />
    <circle
       style="fill:#000000;fill-opacity:1;stroke:#000000;stroke-width:0.264999;stroke-miterlimit:4;stroke-dasharray:none;stroke-opacity:1"
       id="path19311"
       cx="152.39665"
       cy="136.2437"
       r="4.6302085" />
    <path
       style="fill:none;stroke:#000000;stroke-width:0.665;stroke-linecap:butt;stroke-linejoin:miter;stroke-opacity:1;stroke-miterlimit:4;stroke-dasharray:none"
       d="m 125.67708,150.8125 6.61458,3.96875 6.61459,-3.96875"
       id="path19558" />
    <path
       style="fill:#e9c6af;stroke:#000000;stroke-width:0.665;stroke-linecap:butt;stroke-linejoin:miter;stroke-opacity:1;stroke-miterlimit:4;stroke-dasharray:none"
       d="m 142.875,182.5625 c 3.95,3.11015 4.7381,5.88939 10.58333,2.64583 -2.72872,1.46919 7.19677,-2.27505 0,-10.58333"
       id="path11157"
       sodipodi:nodetypes="ccc" />
    <path
       style="fill:#000000;fill-opacity:1;stroke:#000000;stroke-width:0.681726;stroke-miterlimit:4;stroke-dasharray:none;stroke-opacity:1"
       d="m 389.05301,760.3605 c -10.25785,-9.27173 -13.25253,-12.2895 -13.25253,-13.35471 0,-0.16408 1.87698,-1.28036 4.17106,-2.48061 l 4.17105,-2.18229 8.19657,13.93787 c 4.50811,7.66583 8.13503,13.99941 8.05981,14.07462 -0.0752,0.0752 -5.1809,-4.42248 -11.34596,-9.99488 z"
       id="path19678"
       transform="scale(0.26458333)" />
    <path
       style="fill:#000000;fill-opacity:1;stroke:#000000;stroke-width:0.120627;stroke-miterlimit:4;stroke-dasharray:none;stroke-opacity:1"
       d="m 400.96741,771.31607 -0.69261,-0.63009 0.20067,-0.0397 c 0.1403,-0.0277 0.20089,-0.0641 0.20141,-0.12085 0.003,-0.27727 0.10267,-0.16916 0.54808,0.59157 0.25716,0.43921 0.46025,0.80544 0.45131,0.81384 -0.009,0.008 -0.32793,-0.26825 -0.70886,-0.61479 z"
       id="path19717"
       transform="scale(0.26458333)" />
    <path
       style="fill:#000000;fill-opacity:1;stroke:#000000;stroke-width:0.120627;stroke-miterlimit:4;stroke-dasharray:none;stroke-opacity:1"
       d="m 399.11634,782.03001 c -1.1043,-0.11505 -2.43568,-0.36021 -3.91149,-0.72027 l -0.98387,-0.24003 -6.62282,-10.41159 c -4.79254,-7.53425 -6.64279,-10.40559 -6.69513,-10.38989 -0.0838,0.0251 -14.03656,2.76101 -14.08092,2.76101 -0.0163,0 -0.0296,-0.69651 -0.0295,-1.5478 l 7e-5,-1.5478 4.16339,-0.82992 c 3.7302,-0.74357 6.85118,-1.38093 7.22771,-1.47603 0.12292,-0.031 0.1337,-0.0496 0.1069,-0.18354 -0.0671,-0.33552 -0.87342,-1.667 -3.31705,-5.47748 -1.8916,-2.94964 -1.98785,-3.09559 -2.04155,-3.09559 -0.0599,0 -0.91428,0.42815 -3.74613,1.87726 -1.28368,0.65689 -2.34735,1.19434 -2.36369,1.19434 -0.0163,0 -0.0297,-3.1208 -0.0297,-6.9351 v -6.93511 l 11.86646,0.002 c 10.84197,0.002 11.85403,0.008 11.72248,0.0777 -0.0792,0.0417 -1.07266,0.56202 -2.20771,1.15629 -1.13505,0.59428 -2.06967,1.08538 -2.07692,1.09133 -0.0141,0.0116 19.12496,32.56445 19.18044,32.6232 0.0326,0.0346 3.67513,-3.17925 5.76552,-5.08703 3.06238,-2.79484 5.37859,-5.14581 7.19831,-7.30635 4.71666,-5.60002 7.32624,-11.34218 8.15741,-17.94967 0.1739,-1.38244 0.28964,-2.98645 0.29003,-4.01948 v -0.58793 h 1.46381 1.46381 v 1.589 1.589 l 0.10799,-0.0271 c 0.0594,-0.0149 1.40873,-0.42761 2.99854,-0.91709 1.59002,-0.48947 2.90205,-0.88995 2.91584,-0.88995 0.0138,0 0.0251,0.72188 0.0251,1.60418 v 1.60418 l -0.22797,0.0676 c -0.12538,0.0371 -1.72185,0.52753 -3.5477,1.08972 l -3.31973,1.02217 -0.0543,0.3177 c -0.10576,0.6183 -0.44011,2.07605 -0.65119,2.83913 -1.60218,5.7921 -4.59542,10.92443 -9.43182,16.17216 -2.15388,2.33707 -4.25963,4.33227 -9.45179,8.95561 -1.30663,1.16349 -2.47836,2.21071 -2.60383,2.32717 l -0.22813,0.21173 -0.0971,0.8159 c -0.18748,1.57534 -0.33287,2.26059 -0.62788,2.95946 -0.34381,0.81447 -1.01835,1.59151 -1.73137,1.99445 -0.47437,0.26808 -1.23951,0.51799 -1.86893,0.61044 -0.55318,0.0812 -2.02275,0.0933 -2.70549,0.0221 z m 2.73383,-9.96594 c -0.14634,-0.2548 -0.23817,-0.3721 -0.18786,-0.23997 0.0538,0.14137 -0.0802,0.0972 -0.29146,-0.096 -0.10824,-0.099 -0.0227,-0.0131 0.19016,0.19087 0.21283,0.20396 0.39442,0.37134 0.40353,0.37195 0.009,6.1e-4 -0.0424,-0.10148 -0.11437,-0.22687 z m -0.28614,-0.49193 c -0.041,-0.0792 -0.0853,-0.14398 -0.0985,-0.14398 -0.0132,0 0.01,0.0648 0.0505,0.14398 0.041,0.0792 0.0853,0.14398 0.0985,0.14398 0.0132,0 -0.01,-0.0648 -0.0505,-0.14398 z m -0.50394,-0.11025 c 0,-0.008 -0.0918,-0.0996 -0.20397,-0.20397 l -0.20398,-0.18972 0.18972,0.20398 c 0.17644,0.18969 0.21823,0.22602 0.21823,0.18971 z m -0.6185,-0.58014 c -0.14317,-0.14589 -0.18673,-0.21834 -0.14197,-0.23618 0.0459,-0.0183 0.0415,-0.0268 -0.0151,-0.0295 -0.0438,-0.002 -0.195,-0.092 -0.33595,-0.19981 -0.17733,-0.13563 -0.11582,-0.0623 0.19966,0.23789 0.48117,0.45791 0.64141,0.58223 0.29338,0.22762 z m 0.60722,-0.1855 c -0.0387,-0.0594 -0.17365,-0.28616 -0.29996,-0.50393 -0.24117,-0.41582 -0.33462,-0.52922 -0.16967,-0.20589 0.0533,0.10453 0.097,0.23412 0.097,0.28796 0,0.0539 0.022,0.0979 0.049,0.0979 0.0269,0 0.11749,0.0972 0.20122,0.21597 0.15531,0.22034 0.24998,0.30382 0.12247,0.10799 z m -21.72014,-12.62697 0.22574,-0.0554 -0.20343,-0.32165 c -0.11189,-0.17691 -0.21348,-0.33173 -0.22574,-0.34405 -0.0123,-0.0123 -0.0148,0.0839 -0.006,0.21383 0.0123,0.17455 -0.009,0.28004 -0.0824,0.40404 -0.11432,0.19377 -0.0993,0.19909 0.29147,0.10322 z m -0.82613,-7.12247 c -0.69593,-0.70611 -1.3179,-1.33783 -1.38215,-1.40382 -0.10586,-0.10873 0.0519,0.17326 0.30867,0.55193 0.0613,0.0903 2.27427,2.12615 2.3183,2.13268 0.0113,0.002 -0.54889,-0.57468 -1.24482,-1.28079 z m -5.32684,-2.96362 c -0.0743,-0.0896 -0.10211,-0.0898 -0.2188,-0.002 -0.0871,0.0659 -0.0811,0.0706 0.0927,0.072 0.15984,10e-4 0.1775,-0.009 0.12611,-0.0705 z m 2.54367,-1.32052 c 0.0924,-0.0934 0.22197,-0.20838 0.28796,-0.25541 0.066,-0.047 -0.0528,0.005 -0.26396,0.11561 -0.21117,0.11062 -0.39298,0.20911 -0.40402,0.21887 -0.011,0.01 0.0101,0.0741 0.047,0.14301 0.0623,0.11641 0.0705,0.11898 0.11606,0.0365 0.027,-0.0488 0.12461,-0.16517 0.217,-0.25861 z m 9.45716,-5.7358 c 0.0779,-0.0403 0.1416,-0.084 0.1416,-0.0972 0,-0.0215 -0.28257,0.10836 -0.33196,0.15255 -0.0485,0.0434 0.0609,0.0116 0.19036,-0.0553 z"
       id="path19756"
       transform="scale(0.26458333)" />
    <path
       style="fill:#000000;fill-opacity:1;stroke:#000000;stroke-width:0.120627;stroke-miterlimit:4;stroke-dasharray:none;stroke-opacity:1"
       d="m 399.33232,782.08288 c -1.01843,-0.0828 -2.76144,-0.40144 -4.40082,-0.80462 l -0.72929,-0.17936 -5.00931,-7.87098 c -5.71029,-8.97239 -6.25768,-9.82947 -7.41784,-11.61449 -0.46321,-0.71271 -0.84416,-1.3 -0.84654,-1.30509 -0.002,-0.005 -1.96911,0.37751 -4.37051,0.85022 -8.51454,1.67606 -9.6939,1.90295 -9.73016,1.87192 -0.0202,-0.0173 -0.031,-0.73039 -0.024,-1.58473 l 0.0127,-1.55334 5.32731,-1.07212 c 6.5658,-1.32138 6.07544,-1.21749 6.10455,-1.29335 0.0632,-0.16469 -0.58504,-1.27396 -2.50606,-4.28843 -2.206,-3.46167 -2.76547,-4.31704 -2.82459,-4.31844 -0.0231,-5.5e-4 -1.41072,0.69148 -3.0836,1.53784 l -3.0416,1.53883 v -6.96213 -6.96214 h 11.85789 c 9.65696,0 11.84612,0.0114 11.79447,0.0617 -0.0349,0.0339 -1.00289,0.55398 -2.15115,1.15573 -1.14825,0.60174 -2.10578,1.11147 -2.12784,1.13271 -0.0221,0.0213 0.56959,1.06157 1.31477,2.31183 0.74519,1.25025 3.23372,5.46957 5.53007,9.37627 4.1342,7.03336 9.74156,16.56239 11.3815,19.34149 0.4673,0.7919 0.86509,1.45562 0.88398,1.47493 0.0468,0.0478 1.3195,-1.05149 4.20678,-3.63383 2.91162,-2.60411 6.12471,-5.73413 7.66194,-7.46385 2.46098,-2.76916 4.22673,-5.24634 5.696,-7.99097 2.34209,-4.37504 3.64643,-9.41591 3.78455,-14.6261 l 0.0302,-1.13986 h 1.50434 1.50434 v 1.5598 c 0,0.85789 0.0103,1.5598 0.0229,1.5598 0.0126,0 1.33022,-0.39955 2.92809,-0.88789 1.59787,-0.48833 2.9374,-0.88788 2.97674,-0.88788 0.0619,0 0.0715,0.21689 0.0715,1.62104 v 1.62105 l -3.49155,1.07131 c -1.92035,0.58923 -3.51494,1.1008 -3.54353,1.13683 -0.0286,0.036 -0.0793,0.22289 -0.11266,0.41524 -0.0334,0.19235 -0.14732,0.72732 -0.25324,1.18883 -1.46881,6.40023 -4.51431,11.90227 -9.74998,17.61451 -2.10041,2.29159 -3.98931,4.08601 -9.30088,8.83563 -1.48741,1.33005 -2.77625,2.48353 -2.8641,2.56331 l -0.15971,0.14504 -0.11273,0.88714 c -0.235,1.84933 -0.41326,2.56541 -0.82107,3.2982 -0.38715,0.69569 -1.06844,1.37464 -1.69773,1.69193 -0.37863,0.1909 -1.09543,0.42199 -1.56052,0.50309 -0.49773,0.0868 -1.99211,0.128 -2.66359,0.0734 z m 2.40848,-10.13719 c -0.0344,-0.0344 -0.0568,-0.0373 -0.0568,-0.007 0,0.0641 0.0568,0.12082 0.0888,0.0888 0.0136,-0.0136 -7.6e-4,-0.0504 -0.032,-0.0816 z m -22.30749,-13.95635 c 0.0243,-0.0235 -0.0161,-0.13355 -0.0944,-0.2574 l -0.13686,-0.21632 -0.0546,0.20114 c -0.03,0.11063 -0.072,0.242 -0.0933,0.29193 -0.0354,0.0831 -0.0227,0.0879 0.14906,0.0562 0.10324,-0.019 0.2068,-0.053 0.23013,-0.0756 z m -1.53844,-7.60751 c -0.28546,-0.30413 -0.5263,-0.53111 -0.53521,-0.50439 -0.009,0.0267 0.0233,0.0974 0.0716,0.15702 0.12317,0.15208 0.91407,0.90035 0.95164,0.90035 0.017,0 -0.20261,-0.24884 -0.48807,-0.55298 z m -2.26718,-3.67853 c 0.0609,-0.11381 -0.01,-0.11368 -0.15061,2.9e-4 -0.0647,0.0524 -0.0944,0.11179 -0.073,0.14631 0.0419,0.0678 0.14506,2.4e-4 0.22364,-0.14659 z"
       id="path19795"
       transform="scale(0.26458333)" />
    <path
       style="fill:#000000;fill-opacity:1;stroke:#000000;stroke-width:0.120627;stroke-miterlimit:4;stroke-dasharray:none;stroke-opacity:1"
       d="m 399.06835,782.1012 c -1.01535,-0.1477 -1.57485,-0.24107 -2.27971,-0.38045 -0.85364,-0.16879 -2.57977,-0.56741 -2.60927,-0.60256 -0.009,-0.0106 -2.29092,-3.59362 -5.07117,-7.96226 -5.22659,-8.2126 -6.80858,-10.68686 -7.70559,-12.05169 l -0.52391,-0.79714 -0.47993,0.11265 c -0.49866,0.11704 -10.77531,2.14166 -12.50239,2.46311 -0.54113,0.10072 -1.04866,0.18434 -1.12785,0.18583 -0.0792,0.001 -2.35036,0.43597 -5.04705,0.9655 -2.69668,0.52954 -4.92689,0.9628 -4.95602,0.9628 -0.0378,0 -0.0493,-0.44299 -0.0403,-1.54571 l 0.0127,-1.54571 0.67191,-0.1322 c 0.36955,-0.0727 2.60989,-0.51178 4.97852,-0.97571 2.36863,-0.46394 4.36637,-0.87468 4.43942,-0.91277 0.0731,-0.0381 2.35734,-0.51423 5.07619,-1.0581 5.88163,-1.17654 6.31119,-1.26748 6.31114,-1.33602 -1.5e-4,-0.21229 -0.73537,-1.45072 -2.63839,-4.44424 -1.58557,-2.49415 -2.6234,-4.07947 -2.67063,-4.07947 -0.0184,0 -1.41765,0.69307 -3.10945,1.54016 -1.6918,0.84708 -3.48635,1.74341 -3.98789,1.99183 -0.50153,0.24843 -2.74463,1.40192 -4.98466,2.56332 -2.24004,1.16139 -4.0812,2.11163 -4.09147,2.11163 -0.0103,0 -0.0187,-5.98243 -0.0187,-13.29428 v -13.29428 h 24.02889 c 13.21589,0 24.01989,0.008 24.0089,0.0168 -0.011,0.009 -3.20559,1.68658 -7.09909,3.72748 -3.89349,2.0409 -7.13307,3.75908 -7.19907,3.81817 -0.066,0.0591 -1.02706,0.58654 -2.13572,1.1721 -1.10866,0.58556 -2.03521,1.08331 -2.05901,1.10611 -0.0551,0.0528 0.22152,0.54545 1.8467,3.2892 0.71808,1.21231 4.14578,7.03117 7.61712,12.93081 3.47135,5.89964 7.02331,11.93605 7.89324,13.41426 0.86994,1.47821 1.60843,2.71584 1.64108,2.75028 0.077,0.0812 0.20894,-0.0233 1.89936,-1.50519 4.83705,-4.24034 8.4221,-7.70272 10.60906,-10.24606 3.84492,-4.47147 6.2717,-8.84127 7.62171,-13.72409 l 0.1924,-0.69591 0.003,3.73259 0.003,3.73258 -0.19679,0.39139 c -1.42037,2.82499 -3.54722,5.87566 -6.1589,8.83409 -2.365,2.67902 -4.28093,4.50541 -11.47466,10.93849 l -1.53646,1.374 -0.1131,0.90444 c -0.30305,2.42338 -0.63067,3.29204 -1.60907,4.2662 -0.53253,0.53023 -0.91213,0.76213 -1.63649,0.99974 -0.76804,0.25194 -0.97296,0.27755 -2.35128,0.29389 -0.71271,0.008 -1.36063,0.006 -1.43982,-0.006 z m -19.66542,-24.13134 c 0.028,-0.028 -0.12814,-0.31592 -0.17133,-0.31592 -0.0203,0 -0.0605,0.0886 -0.0894,0.1969 l -0.0526,0.19691 0.14713,-0.0294 c 0.0809,-0.0162 0.15569,-0.038 0.16616,-0.0485 z m -3.87553,-11.21051 c 0,-0.0264 -0.01,-0.048 -0.0212,-0.048 -0.0116,0 -0.0345,0.0216 -0.0508,0.048 -0.0163,0.0264 -0.007,0.048 0.0212,0.048 0.028,0 0.0508,-0.0216 0.0508,-0.048 z"
       id="path19834"
       transform="scale(0.26458333)" />
    <path
       style="fill:#000000;fill-opacity:1;stroke:#000000;stroke-width:0.120627;stroke-miterlimit:4;stroke-dasharray:none;stroke-opacity:1"
       d="m 397.9405,781.96266 c -1.73622,-0.29603 -3.666,-0.73908 -3.79175,-0.87052 -0.0469,-0.0491 -1.31525,-2.02217 -2.81847,-4.38467 -4.06987,-6.39631 -7.86762,-12.35346 -8.70474,-13.65423 -1.83814,-2.85621 -1.73998,-2.71316 -1.84282,-2.68572 -0.56184,0.14993 -12.30482,2.45157 -13.82221,2.70918 -0.60713,0.10307 -2.77765,0.51379 -4.82338,0.91271 -2.04574,0.39893 -4.08667,0.7967 -4.53541,0.88393 -0.44875,0.0872 -0.8321,0.14948 -0.85189,0.1383 -0.0198,-0.0112 -0.036,-0.72054 -0.036,-1.57637 v -1.55605 l 0.10799,-0.0255 c 0.0594,-0.014 1.42541,-0.28354 3.0356,-0.59898 3.20356,-0.62757 6.37351,-1.2732 7.87099,-1.6031 0.52793,-0.1163 2.89758,-0.6028 5.26589,-1.08111 4.79374,-0.96815 5.17275,-1.0498 5.17275,-1.11427 0,-0.0727 -0.26918,-0.58527 -0.61025,-1.16197 -0.79851,-1.35014 -4.41029,-7.01334 -4.62251,-7.24802 -0.0394,-0.0436 -6.60025,3.21044 -9.7413,4.83147 -5.42468,2.79956 -6.39426,3.29622 -6.43489,3.29622 -0.0269,0 -0.0443,-5.20838 -0.0443,-13.29428 V 730.5854 h 24.02372 c 13.53327,0 24.01251,0.0182 23.99803,0.0416 -0.0141,0.0229 -0.8199,0.45819 -1.7906,0.96739 -8.58989,4.50594 -11.73294,6.17068 -13.06744,6.92124 -0.30356,0.17073 -1.23224,0.6727 -2.06373,1.11548 -0.8315,0.44279 -1.51782,0.81017 -1.52516,0.81641 -0.0439,0.0372 0.0101,0.12997 5.34931,9.19144 2.1386,3.62953 5.76278,9.78473 8.05374,13.67823 5.05563,8.59206 5.53063,9.39295 5.59418,9.43222 0.0725,0.0448 0.22064,-0.0644 1.00132,-0.73757 4.83052,-4.16548 9.25119,-8.41184 11.53527,-11.08045 3.03608,-3.5472 5.20233,-7.09148 6.6137,-10.82088 0.28012,-0.74019 0.75061,-2.18603 0.93434,-2.87124 0.0743,-0.27717 0.15296,-0.52446 0.17476,-0.54953 0.0218,-0.0251 0.0396,1.65467 0.0396,3.73277 v 3.77836 l -0.40196,0.75465 c -1.57561,2.95805 -3.54292,5.71664 -6.20159,8.69594 -2.24258,2.51303 -4.07543,4.25177 -11.39959,10.81432 l -1.32531,1.18749 -0.0835,0.65907 c -0.32858,2.59428 -0.67227,3.54251 -1.63118,4.5004 -0.54994,0.54935 -0.98833,0.80931 -1.80194,1.06851 -0.66575,0.2121 -1.05737,0.24998 -2.53514,0.24523 -1.27494,-0.004 -1.36599,-0.0107 -2.26423,-0.16384 z m -18.60729,-24.00307 c 0.0452,-0.0452 -0.0598,-0.21687 -0.1127,-0.18418 -0.0692,0.0428 -0.0545,0.21448 0.0184,0.21448 0.0352,0 0.0776,-0.0136 0.0943,-0.0303 z"
       id="path19873"
       transform="scale(0.26458333)" />
    <path
       style="fill:#000000;fill-opacity:1;stroke:#000000;stroke-width:0.120627;stroke-miterlimit:4;stroke-dasharray:none;stroke-opacity:1"
       d="m 398.90037,782.12812 c -0.91615,-0.0837 -3.39424,-0.57258 -4.40075,-0.86821 -0.32827,-0.0964 -0.35411,-0.11469 -0.52483,-0.37118 -0.29732,-0.44668 -1.28582,-1.99341 -5.41736,-8.4767 -6.29473,-9.87783 -7.44614,-11.67423 -7.63073,-11.90531 l -0.096,-0.12016 -0.53524,0.11885 c -1.2345,0.27412 -10.51502,2.08746 -13.40696,2.6196 -1.01626,0.187 -2.45248,0.45714 -3.19158,0.6003 -0.73911,0.14316 -2.51008,0.48628 -3.93549,0.76249 -1.42542,0.27622 -2.69425,0.51703 -2.81964,0.53515 l -0.22797,0.0329 v -1.61324 c 0,-0.88728 0.0103,-1.61324 0.023,-1.61324 0.0126,0 1.49744,-0.29103 3.29957,-0.64673 3.12987,-0.61777 4.89617,-0.97795 8.24395,-1.68109 0.8315,-0.17464 3.19639,-0.66019 5.25532,-1.079 4.10732,-0.83548 4.45076,-0.9083 4.53778,-0.96208 0.0431,-0.0267 -0.0147,-0.17616 -0.2129,-0.55071 -0.52274,-0.98766 -4.89039,-7.87387 -4.9699,-7.83574 -2.31029,1.10783 -7.9837,3.95933 -12.2395,6.15168 -2.12393,1.09413 -3.87871,1.97882 -3.8995,1.96597 -0.0208,-0.0128 -0.0378,-6.00452 -0.0378,-13.31481 v -13.29145 h 24.02677 c 21.0397,0 24.01955,0.009 23.96871,0.07 -0.0774,0.0933 -0.22453,0.17256 -4.05717,2.18627 -6.44165,3.38454 -9.07315,4.77937 -10.35529,5.48885 -0.3494,0.19334 -1.2508,0.68104 -2.00311,1.08376 -0.7523,0.40273 -1.50272,0.80652 -1.66761,0.89731 l -0.29978,0.16509 0.0955,0.18726 c 0.13991,0.27424 1.16568,2.02259 6.99749,11.92666 12.30911,20.9044 11.85281,20.1334 11.91567,20.1334 0.13413,0 3.49451,-2.96141 6.09171,-5.36844 1.53499,-1.4226 4.67975,-4.55553 5.5711,-5.55015 2.08778,-2.32965 3.71736,-4.53472 5.09797,-6.89834 1.35012,-2.31143 2.33908,-4.62269 3.13524,-7.32729 0.12118,-0.41164 0.2495,-0.80242 0.28517,-0.86842 0.0549,-0.10165 0.0651,0.46668 0.0668,3.71972 l 0.002,3.83971 -0.4125,0.7677 c -2.36753,4.40613 -5.72395,8.56495 -10.55486,13.0781 -1.39218,1.30062 -3.67704,3.37836 -6.11843,5.56383 -1.04267,0.93336 -1.96556,1.76411 -2.05089,1.84611 -0.15279,0.14684 -0.15698,0.16281 -0.2787,1.06097 -0.3253,2.40061 -0.68292,3.3252 -1.65814,4.28696 -0.7577,0.74725 -1.71682,1.15454 -2.95563,1.25514 -0.68236,0.0554 -2.04095,0.0547 -2.6554,-10e-4 z m -19.58146,-24.20738 c 0,-0.0116 -0.0216,-0.0345 -0.048,-0.0508 -0.0264,-0.0163 -0.048,-0.007 -0.048,0.0212 0,0.028 0.0216,0.0508 0.048,0.0508 0.0264,0 0.048,-0.01 0.048,-0.0212 z"
       id="path19912"
       transform="scale(0.26458333)" />
    <path
       style="fill:#000000;fill-opacity:1;stroke:#000000;stroke-width:0.120627;stroke-miterlimit:4;stroke-dasharray:none;stroke-opacity:1"
       d="m 338.81768,765.93534 c 0.0118,-0.0118 0.37493,-0.20782 0.80686,-0.4355 0.81218,-0.42812 0.86481,-0.43944 0.86666,-0.18633 4e-4,0.0553 0.0459,0.14139 0.10103,0.19131 0.0993,0.0899 0.0916,0.0925 -0.7799,0.26911 -0.87047,0.17637 -1.03657,0.20332 -0.99465,0.16141 z"
       id="path19951"
       transform="scale(0.26458333)" />
    <path
       style="fill:#000000;fill-opacity:1;stroke:#000000;stroke-width:0.120627;stroke-miterlimit:4;stroke-dasharray:none;stroke-opacity:1"
       d=""
       id="path19990"
       transform="scale(0.26458333)" />
    <path
       style="fill:#000000;fill-opacity:1;stroke:#000000;stroke-width:0.120627;stroke-miterlimit:4;stroke-dasharray:none;stroke-opacity:1"
       d="m 313.51942,755.61589 v -23.49465 h 34.43554 34.43555 v 15.34246 15.34246 l -0.68391,-1.05674 c -0.37615,-0.5812 -0.72749,-1.11502 -0.78075,-1.18625 l -0.0968,-0.12952 -2.27887,0.45921 c -3.04535,0.61367 -7.99575,1.57592 -11.61365,2.25744 -1.62339,0.3058 -4.22585,0.80232 -5.78325,1.10337 -3.93191,0.76005 -4.39613,0.84428 -4.4895,0.81465 -0.0451,-0.0143 -5.91047,1.11702 -13.03425,2.51404 l -12.95231,2.54005 -8.4949,4.4497 c -4.67219,2.44734 -8.5327,4.46967 -8.57889,4.49407 -0.0799,0.0422 -0.084,-1.08953 -0.084,-23.45029 z m 25.36069,10.28039 0.14171,-0.14171 -0.30881,0.15483 c -0.38692,0.19399 -0.40139,0.20834 -0.16571,0.1643 0.11313,-0.0211 0.24892,-0.0935 0.33281,-0.17742 z m 1.94778,-0.27537 c 0.0674,-0.0216 0.086,-0.0405 0.0425,-0.0432 -0.0426,-0.003 -0.13983,-0.0523 -0.21598,-0.11037 -0.13334,-0.10169 -0.13522,-0.10185 -0.051,-0.004 0.0847,0.098 0.0847,0.10289 0,0.15212 -0.0825,0.048 -0.082,0.0507 0.008,0.0476 0.0528,-0.002 0.14998,-0.0206 0.21597,-0.0417 z m -1.29583,-0.12336 c 0,-0.0132 -0.0432,-8.8e-4 -0.096,0.0274 -0.0528,0.0283 -0.096,0.0622 -0.096,0.0754 0,0.0132 0.0432,8.8e-4 0.096,-0.0274 0.0528,-0.0282 0.096,-0.0622 0.096,-0.0754 z m 0.95984,-0.44057 c 4e-5,-0.0767 -0.0495,-0.074 -0.15839,0.009 -0.08,0.0607 -0.0773,0.065 0.036,0.0585 0.0673,-0.004 0.1224,-0.0341 0.12242,-0.0671 z m 4.67461,-0.92671 c 2.42463,-0.45664 8.49505,-1.62347 10.36482,-1.99229 0.63607,-0.12546 1.12665,-0.24587 1.16727,-0.2865 0.0385,-0.0385 0.0802,-0.0701 0.0926,-0.0701 0.08,0 7.70582,-1.52932 9.80938,-1.96724 1.16501,-0.24253 4.54159,-0.93709 8.61489,-1.77206 2.77068,-0.56796 2.80763,-0.57663 2.80763,-0.6587 0,-0.17224 -0.56272,-1.13085 -2.09851,-3.57486 -1.07962,-1.71806 -2.65877,-4.17526 -2.87307,-4.47057 l -0.16177,-0.22291 -1.33282,0.64847 c -1.76146,0.85702 -7.04215,3.52145 -11.21352,5.65789 -1.84445,0.94467 -3.44445,1.74494 -3.55556,1.77838 -0.23116,0.0696 -7.90116,4.06106 -12.79234,6.65718 -1.19103,0.63217 -1.3199,0.70806 -1.20226,0.70806 0.0356,0 1.10361,-0.19564 2.37329,-0.43477 z"
       id="path20029"
       transform="scale(0.26458333)" />
    <path
       style="fill:#000000;fill-opacity:1;stroke:#000000;stroke-width:0.106676;stroke-miterlimit:4;stroke-dasharray:none;stroke-opacity:1"
       d=""
       id="path20068"
       transform="scale(0.26458333)" />
    <path
       style="fill:#000000;fill-opacity:1;stroke:#000000;stroke-width:0.106676;stroke-miterlimit:4;stroke-dasharray:none;stroke-opacity:1"
       d="m 537.2679,690.57791 0.4881,-0.16339 0.0995,0.0898 0.0995,0.0898 -0.12071,0.0109 c -0.0664,0.006 -0.27351,0.0314 -0.46026,0.0566 -0.18675,0.0251 -0.39684,0.0533 -0.46687,0.0627 -0.07,0.009 0.0923,-0.0565 0.36076,-0.14639 z"
       id="path20107"
       transform="scale(0.26458333)" />
    <path
       style="fill:#000000;fill-opacity:1;stroke:#000000;stroke-width:0.106676;stroke-miterlimit:4;stroke-dasharray:none;stroke-opacity:1"
       d="m 536.66574,690.75615 c 0.0306,-0.0123 0.0672,-0.0108 0.0813,0.003 0.0141,0.0141 -0.011,0.0241 -0.0557,0.0223 -0.0494,-0.002 -0.0595,-0.0121 -0.0256,-0.0256 z"
       id="path20220"
       transform="scale(0.26458333)" />
    <path
       style="fill:#000000;fill-opacity:1;stroke:#000000;stroke-width:0.0295922;stroke-miterlimit:4;stroke-dasharray:none;stroke-opacity:1"
       d=""
       id="path20259"
       transform="scale(0.26458333)" />
    <path
       style="fill:#000000;fill-opacity:1;stroke:#000000;stroke-width:0.0295922;stroke-miterlimit:4;stroke-dasharray:none;stroke-opacity:1"
       d=""
       id="path20298"
       transform="scale(0.26458333)" />
    <path
       style="fill:#000000;fill-opacity:1;stroke:#000000;stroke-width:0.0295922;stroke-miterlimit:4;stroke-dasharray:none;stroke-opacity:1"
       d="m 536.80158,690.73717 c -0.0134,-0.0295 -0.009,-0.0424 0.0156,-0.0424 0.008,0 0.0167,0.0159 0.0195,0.0353 0.006,0.0431 -0.0166,0.0477 -0.0352,0.007 z"
       id="path20337"
       transform="scale(0.26458333)" />
    <path
       style="fill:#000000;fill-opacity:1;stroke:#000000;stroke-width:0.0295922;stroke-miterlimit:4;stroke-dasharray:none;stroke-opacity:1"
       d="m 542.83878,694.84357 c -1.75957,-1.5355 -2.8899,-2.44663 -3.35508,-2.70445 l -0.0719,-0.0399 -0.0731,0.0172 c -0.0912,0.0215 -0.2273,0.0134 -0.34981,-0.0208 -0.21321,-0.0594 -0.51684,-0.24132 -0.76968,-0.4611 -0.19985,-0.17371 -0.17541,-0.16258 -0.35706,-0.16266 -0.0855,-3e-5 -0.21793,0.008 -0.29435,0.0178 -1.11399,0.14289 -3.84901,0.90475 -10.42339,2.90352 -0.48891,0.14864 -0.8982,0.27307 -0.90953,0.2765 -0.0196,0.006 -0.0206,-0.0779 -0.0204,-1.64584 l 1.9e-4,-1.65208 4.78616,-1.49498 4.78616,-1.49498 -1.61034,-1.61037 -1.61034,-1.61037 h 5.27173 5.27172 l -5.1e-4,1.25097 -5.1e-4,1.25097 -1.03599,0.77587 c -0.56979,0.42673 -1.03448,0.77979 -1.03264,0.78457 0.002,0.005 0.19408,0.16178 0.4272,0.34887 0.48969,0.39301 0.74854,0.60474 1.26863,1.03769 l 0.37382,0.31119 v 2.07673 c 0,1.14219 -0.001,2.07672 -0.003,2.07672 -0.002,0 -0.12221,-0.10399 -0.26786,-0.23109 z m -3.24359,-3.57186 c -0.004,-0.006 -0.0126,-0.0118 -0.019,-0.0118 -0.006,0 -0.009,0.005 -0.005,0.0118 0.004,0.006 0.0126,0.0118 0.019,0.0118 0.006,0 0.009,-0.005 0.005,-0.0118 z m -3.60713,-0.29934 c 0.19665,-0.0481 0.42014,-0.10165 0.49664,-0.11906 0.11811,-0.0269 0.13783,-0.0346 0.13075,-0.0509 -0.005,-0.0106 -0.009,-0.0276 -0.009,-0.0379 -7.3e-4,-0.0166 -0.009,-0.0162 -0.0719,0.004 -0.83946,0.26106 -0.93524,0.29176 -0.91036,0.29176 0.004,0 0.16736,-0.0393 0.36401,-0.0874 z m 0.828,-0.19435 c 0.004,-0.006 10e-4,-0.0143 -0.005,-0.0184 -0.007,-0.004 -0.012,8.7e-4 -0.012,0.011 0,0.0207 0.007,0.0237 0.0172,0.007 z m 0.0535,-0.006 c 0,-0.0124 -0.0226,-0.0176 -0.0293,-0.007 -0.004,0.007 8.6e-4,0.012 0.011,0.012 0.0101,0 0.0184,-0.002 0.0184,-0.005 z m -0.0794,-0.0639 c 0.004,-0.017 6.8e-4,-0.0207 -0.0165,-0.0162 -0.0175,0.005 -0.0194,0.009 -0.009,0.0221 0.0173,0.0208 0.0185,0.0205 0.0254,-0.006 z m 0.10294,-0.0472 c 0.003,-0.003 -0.01,-9e-4 -0.0294,0.004 -0.0427,0.0103 -0.0459,0.013 -0.0354,0.0301 0.006,0.009 0.0159,0.007 0.0336,-0.008 0.0139,-0.0117 0.028,-0.0234 0.0312,-0.026 z m 1.13926,-0.0213 c -0.0113,-0.003 -0.0324,-0.003 -0.0471,-2.3e-4 -0.0146,0.003 -0.005,0.005 0.0205,0.005 0.0259,1.3e-4 0.0379,-0.002 0.0266,-0.005 z"
       id="path20376"
       transform="scale(0.26458333)" />
    <path
       style="fill:#000000;fill-opacity:1;stroke:#000000;stroke-width:0.0295922;stroke-miterlimit:4;stroke-dasharray:none;stroke-opacity:1"
       d=""
       id="path20415"
       transform="scale(0.26458333)" />
    <path
       style="fill:#000000;fill-opacity:1;stroke:#000000;stroke-width:0.0295922;stroke-miterlimit:4;stroke-dasharray:none;stroke-opacity:1"
       d=""
       id="path20454"
       transform="scale(0.26458333)" />
    <path
       style="fill:#000000;fill-opacity:1;stroke:#000000;stroke-width:0.0295922;stroke-miterlimit:4;stroke-dasharray:none;stroke-opacity:1"
       d="m 542.65638,694.69616 c -1.62892,-1.41402 -2.62698,-2.21941 -3.10552,-2.50603 -0.1378,-0.0825 -0.13929,-0.0831 -0.18812,-0.0699 -0.0774,0.0209 -0.24966,0.0149 -0.35625,-0.0123 -0.20639,-0.0527 -0.50762,-0.22974 -0.78093,-0.45907 -0.0838,-0.0704 -0.17008,-0.13704 -0.19163,-0.14818 -0.0567,-0.0293 -0.38592,-0.0175 -0.63457,0.0228 -1.24798,0.20214 -3.71198,0.89492 -10.4349,2.93389 -0.39358,0.11936 -0.72342,0.21703 -0.73297,0.21703 -0.0152,0 -0.017,-0.20322 -0.0144,-1.65636 l 0.003,-1.65635 4.76841,-1.4891 c 2.62262,-0.81901 4.77083,-1.49114 4.77379,-1.49363 0.003,-0.002 -0.71759,-0.72752 -1.60122,-1.61118 l -1.60662,-1.60665 h 5.27761 5.27761 l -5.1e-4,1.25686 -5.1e-4,1.25686 -0.70829,0.52982 c -0.96582,0.72246 -1.33934,1.00648 -1.33934,1.01841 0,0.006 0.14967,0.13074 0.33261,0.27822 0.47895,0.38614 0.85336,0.69242 1.31278,1.07392 l 0.40326,0.33486 v 2.08231 c 0,1.14528 -0.004,2.08224 -0.009,2.08215 -0.005,-9e-5 -0.20487,-0.17034 -0.44447,-0.37833 z m -6.40497,-3.79549 c 0.38357,-0.0927 0.35785,-0.0845 0.35071,-0.11184 -0.003,-0.0129 -0.0113,-0.0234 -0.0176,-0.0234 -0.0238,0 -0.62792,0.1918 -0.63919,0.20294 -0.008,0.008 -0.004,0.009 0.0118,0.005 0.0129,-0.004 0.14541,-0.0364 0.29434,-0.0724 z"
       id="path20493"
       transform="scale(0.26458333)" />
    <path
       style="fill:#000000;fill-opacity:1;stroke:#000000;stroke-width:0.0295922;stroke-miterlimit:4;stroke-dasharray:none;stroke-opacity:1"
       d="m 543.00682,695.00752 c -0.0438,-0.0369 -0.28892,-0.24761 -0.5447,-0.46818 -1.67118,-1.44112 -2.60054,-2.18186 -2.99755,-2.38915 -0.0563,-0.0294 -0.0639,-0.0305 -0.12354,-0.0177 -0.0765,0.0164 -0.24599,0.007 -0.34631,-0.0191 -0.10087,-0.0263 -0.33244,-0.14167 -0.47684,-0.23753 -0.068,-0.0451 -0.1978,-0.14178 -0.28846,-0.21476 -0.0907,-0.073 -0.18188,-0.14012 -0.20272,-0.1492 -0.0503,-0.0219 -0.2686,-0.0215 -0.4691,9e-4 -0.94858,0.10598 -3.45617,0.79575 -9.11813,2.50812 -1.86972,0.56547 -2.20434,0.66494 -2.21491,0.65841 -0.006,-0.004 -0.0104,-0.72524 -0.0104,-1.66519 v -1.6588 l 0.16778,-0.0529 c 0.0923,-0.0291 1.12941,-0.35302 2.30473,-0.71987 1.17532,-0.36685 3.21249,-1.00346 4.52704,-1.41469 1.31455,-0.41123 2.42321,-0.758 2.46368,-0.77061 0.0405,-0.0126 0.0736,-0.0245 0.0736,-0.0263 0,-0.002 -0.72189,-0.7248 -1.60419,-1.60651 l -1.60419,-1.60311 5.28352,-1.5e-4 5.28351,-1.5e-4 -4.9e-4,1.26275 -4.8e-4,1.26274 -0.77908,0.58281 c -0.63275,0.47334 -1.0979,0.82485 -1.2433,0.93955 -0.0178,0.014 -0.0173,0.017 0.006,0.0353 0.25917,0.20637 1.45204,1.18457 1.89694,1.55558 l 0.12068,0.10063 v 2.0871 c 0,1.36456 -0.004,2.0871 -0.0116,2.0871 -0.006,0 -0.0475,-0.0302 -0.0912,-0.0671 z m -6.61861,-4.14856 c 0.19147,-0.0474 0.23124,-0.0628 0.19678,-0.076 -0.0167,-0.006 -0.34816,0.0902 -0.3864,0.1126 -0.0283,0.0166 -0.0142,0.0139 0.18962,-0.0366 z"
       id="path20532"
       transform="scale(0.26458333)" />
    <path
       style="fill:#a05a2c;stroke:#000000;stroke-width:0.665;stroke-linecap:butt;stroke-linejoin:miter;stroke-opacity:1;stroke-miterlimit:4;stroke-dasharray:none"
       d="m 81.227083,203.99375 -5.820834,1.05833 -1.322916,-5.29166 6.35,-1.32292"
       id="path12491"
       sodipodi:nodetypes="cccc" />
    <path
       style="fill:#784421;stroke:#000000;stroke-width:0.264583px;stroke-linecap:butt;stroke-linejoin:miter;stroke-opacity:1;fill-opacity:1"
       d="m 75.406249,199.76041 1.322918,5.02709 1.322915,-0.26459 -1.322916,-5.02708 z"
       id="path20805"
       sodipodi:nodetypes="ccccc" />
  </g>
</svg>
